<svg id="visual" viewBox="0 0 960 540" width="960" height="540" xmlns="http://www.w3.org/2000/svg" xmlns:xlink="http://www.w3.org/1999/xlink" version="1.1"><path d="M0 82L14.5 90.2C29 98.3 58 114.7 87.2 115.5C116.3 116.3 145.7 101.7 174.8 96.2C204 90.7 233 94.3 262 92.7C291 91 320 84 349 81.3C378 78.7 407 80.3 436.2 83C465.3 85.7 494.7 89.3 523.8 99.2C553 109 582 125 611 124C640 123 669 105 698 100.5C727 96 756 105 785.2 104.2C814.3 103.3 843.7 92.7 872.8 85.5C902 78.3 931 74.7 945.5 72.8L960 71L960 0L945.5 0C931 0 902 0 872.8 0C843.7 0 814.3 0 785.2 0C756 0 727 0 698 0C669 0 640 0 611 0C582 0 553 0 523.8 0C494.7 0 465.3 0 436.2 0C407 0 378 0 349 0C320 0 291 0 262 0C233 0 204 0 174.8 0C145.7 0 116.3 0 87.2 0C58 0 29 0 14.5 0L0 0Z" fill="#4d4d4d"></path><path d="M0 174L14.5 174.8C29 175.7 58 177.3 87.2 177.3C116.3 177.3 145.7 175.7 174.8 173C204 170.3 233 166.7 262 158.5C291 150.3 320 137.7 349 138.5C378 139.3 407 153.7 436.2 160C465.3 166.3 494.7 164.7 523.8 165.7C553 166.7 582 170.3 611 171.2C640 172 669 170 698 167.3C727 164.7 756 161.3 785.2 156.8C814.3 152.3 843.7 146.7 872.8 143.8C902 141 931 141 945.5 141L960 141L960 69L945.5 70.8C931 72.7 902 76.3 872.8 83.5C843.7 90.7 814.3 101.3 785.2 102.2C756 103 727 94 698 98.5C669 103 640 121 611 122C582 123 553 107 523.8 97.2C494.7 87.3 465.3 83.7 436.2 81C407 78.3 378 76.7 349 79.3C320 82 291 89 262 90.7C233 92.3 204 88.7 174.8 94.2C145.7 99.7 116.3 114.3 87.2 113.5C58 112.7 29 96.3 14.5 88.2L0 80Z" fill="#3b3b3b"></path><path d="M0 352L14.5 338.5C29 325 58 298 87.2 283.7C116.3 269.3 145.7 267.7 174.8 282C204 296.3 233 326.7 262 330.2C291 333.7 320 310.3 349 295.2C378 280 407 273 436.2 283.8C465.3 294.7 494.7 323.3 523.8 323.3C553 323.3 582 294.7 611 295.5C640 296.3 669 326.7 698 338.3C727 350 756 343 785.2 326.8C814.3 310.7 843.7 285.3 872.8 278.2C902 271 931 282 945.5 287.5L960 293L960 139L945.5 139C931 139 902 139 872.8 141.8C843.7 144.7 814.3 150.3 785.2 154.8C756 159.3 727 162.7 698 165.3C669 168 640 170 611 169.2C582 168.3 553 164.7 523.8 163.7C494.7 162.7 465.3 164.3 436.2 158C407 151.7 378 137.3 349 136.5C320 135.7 291 148.3 262 156.5C233 164.7 204 168.3 174.8 171C145.7 173.7 116.3 175.3 87.2 175.3C58 175.3 29 173.7 14.5 172.8L0 172Z" fill="#2a2a2a"></path><path d="M0 395L14.5 387C29 379 58 363 87.2 351.3C116.3 339.7 145.7 332.3 174.8 351.2C204 370 233 415 262 415C291 415 320 370 349 351.2C378 332.3 407 339.7 436.2 352.3C465.3 365 494.7 383 523.8 388.3C553 393.7 582 386.3 611 389C640 391.7 669 404.3 698 406.2C727 408 756 399 785.2 390C814.3 381 843.7 372 872.8 368.3C902 364.7 931 366.3 945.5 367.2L960 368L960 291L945.5 285.5C931 280 902 269 872.8 276.2C843.7 283.3 814.3 308.7 785.2 324.8C756 341 727 348 698 336.3C669 324.7 640 294.3 611 293.5C582 292.7 553 321.3 523.8 321.3C494.7 321.3 465.3 292.7 436.2 281.8C407 271 378 278 349 293.2C320 308.3 291 331.7 262 328.2C233 324.7 204 294.3 174.8 280C145.7 265.7 116.3 267.3 87.2 281.7C58 296 29 323 14.5 336.5L0 350Z" fill="#252525"></path><path d="M0 541L14.5 541C29 541 58 541 87.2 541C116.3 541 145.7 541 174.8 541C204 541 233 541 262 541C291 541 320 541 349 541C378 541 407 541 436.2 541C465.3 541 494.7 541 523.8 541C553 541 582 541 611 541C640 541 669 541 698 541C727 541 756 541 785.2 541C814.3 541 843.7 541 872.8 541C902 541 931 541 945.5 541L960 541L960 366L945.5 365.2C931 364.3 902 362.7 872.8 366.3C843.7 370 814.3 379 785.2 388C756 397 727 406 698 404.2C669 402.3 640 389.7 611 387C582 384.3 553 391.7 523.8 386.3C494.7 381 465.3 363 436.2 350.3C407 337.7 378 330.3 349 349.2C320 368 291 413 262 413C233 413 204 368 174.8 349.2C145.7 330.3 116.3 337.7 87.2 349.3C58 361 29 377 14.5 385L0 393Z" fill="#202020"></path></svg>